<?xml version="1.0" encoding="UTF-8"?>
<svg version="1.1" xmlns="http://www.w3.org/2000/svg" width="972" height="972">
	<path
		d="M0 0 C320.76 0 641.52 0 972 0 C972 320.76 972 641.52 972 972 C651.24 972 330.48 972 0 972 C0 651.24 0 330.48 0 0 Z "
		fill="#FFFFFF" transform="translate(0,0)" />
	<path
		d="M0 0 C12.21949862 10.22113557 19.60973548 22.86625164 24 38 C24 38.66 24 39.32 24 40 C24.74870361 39.69819824 25.49740723 39.39639648 26.26879883 39.08544922 C103.5363694 8.04588453 184.21030192 2.7998814 262.35205078 34.96826172 C265.96194813 36.52813557 269.50383658 38.20050412 273 40 C273.66 40.33 274.32 40.66 275 41 C275.185625 39.80375 275.37125 38.6075 275.5625 37.375 C277.92637537 26.82079588 283.88695588 17.01628782 291 9 C291.74443359 8.11634766 291.74443359 8.11634766 292.50390625 7.21484375 C304.4981777 -5.98186093 322.47152438 -13.09915784 339.9609375 -14.18359375 C362.00081825 -14.67529713 381.80270118 -7.39368388 397.796875 7.80078125 C398.88742187 8.88939453 398.88742187 8.88939453 400 10 C400.62390625 10.61230469 401.2478125 11.22460938 401.890625 11.85546875 C416.33307525 27.11112003 422.56760807 48.83626113 422.18359375 69.4375 C420.85643208 95.19008393 411.14224939 114.79980617 392.5234375 132.33203125 C387.66956019 136.66521991 387.66956019 136.66521991 385 138 C386.45767575 142.08750312 388.46540331 145.3988445 390.875 149 C399.85885593 162.69837788 407.94878009 177.06674474 414.98291016 191.86230469 C415.69219471 193.35306214 416.40857839 194.8404537 417.13037109 196.32519531 C437.15984071 237.66208844 449.59262756 283.34636522 455.578125 328.80566406 C455.85753006 330.92125192 456.14904415 333.03527865 456.453125 335.14746094 C468.29321498 418.46188719 451.0456029 500.50161893 401.33203125 568.70703125 C398.94877049 571.86008912 396.50490137 574.94277566 394 578 C393.55462891 578.54688477 393.10925781 579.09376953 392.65039062 579.65722656 C385.67098268 588.16247749 378.12670999 596.07184516 370.375 603.875 C369.51672607 604.74253906 368.65845215 605.61007812 367.77416992 606.50390625 C361.82567601 612.42350472 355.58309985 617.79981043 349 623 C348.27828613 623.57572754 347.55657227 624.15145508 346.81298828 624.74462891 C303.1729257 659.32351632 251.88062172 681.80123411 197 691 C196.05817871 691.16371094 195.11635742 691.32742188 194.14599609 691.49609375 C117.4079394 704.34995062 33.06209742 682.52287545 -30.11816406 638.12304688 C-51.11397173 623.02350887 -71.36771855 605.882993 -88 586 C-88.45358887 585.46020508 -88.90717773 584.92041016 -89.37451172 584.36425781 C-146.27969786 516.38356564 -166.98148274 434.6271752 -159.28515625 346.94921875 C-153.21238184 281.7481922 -132.93113013 217.09643464 -99.6875 160.75 C-99.1705809 159.87313034 -99.1705809 159.87313034 -98.64321899 158.97854614 C-92.4344498 148.47585835 -92.4344498 148.47585835 -89.01953125 143.890625 C-86.71364068 141.17782713 -86.71364068 141.17782713 -87 138 C-88.69267769 136.39304552 -88.69267769 136.39304552 -90.9375 134.875 C-107.94934008 122.06953039 -118.8361067 103.8188713 -122.5625 82.83203125 C-125.15138746 60.15615091 -121.8845334 37.68858196 -108 19 C-105.12917943 15.53363686 -102.10513062 12.25619103 -99 9 C-98.18982422 8.06027344 -98.18982422 8.06027344 -97.36328125 7.1015625 C-73.28985071 -19.70059442 -27.78412152 -19.66490102 0 0 Z "
		fill="#E9E9E9" transform="translate(337,35)" />
	<path
		d="M0 0 C12.21949862 10.22113557 19.60973548 22.86625164 24 38 C24 38.66 24 39.32 24 40 C24.74870361 39.69819824 25.49740723 39.39639648 26.26879883 39.08544922 C103.5363694 8.04588453 184.21030192 2.7998814 262.35205078 34.96826172 C265.96194813 36.52813557 269.50383658 38.20050412 273 40 C273.66 40.33 274.32 40.66 275 41 C275.185625 39.80375 275.37125 38.6075 275.5625 37.375 C277.92637537 26.82079588 283.88695588 17.01628782 291 9 C291.74443359 8.11634766 291.74443359 8.11634766 292.50390625 7.21484375 C304.4981777 -5.98186093 322.47152438 -13.09915784 339.9609375 -14.18359375 C362.00081825 -14.67529713 381.80270118 -7.39368388 397.796875 7.80078125 C398.88742187 8.88939453 398.88742187 8.88939453 400 10 C400.62390625 10.61230469 401.2478125 11.22460938 401.890625 11.85546875 C416.33307525 27.11112003 422.56760807 48.83626113 422.18359375 69.4375 C420.85643208 95.19008393 411.14224939 114.79980617 392.5234375 132.33203125 C387.66956019 136.66521991 387.66956019 136.66521991 385 138 C386.45767575 142.08750312 388.46540331 145.3988445 390.875 149 C399.85885593 162.69837788 407.94878009 177.06674474 414.98291016 191.86230469 C415.69219471 193.35306214 416.40857839 194.8404537 417.13037109 196.32519531 C437.15984071 237.66208844 449.59262756 283.34636522 455.578125 328.80566406 C455.85753006 330.92125192 456.14904415 333.03527865 456.453125 335.14746094 C468.29321498 418.46188719 451.0456029 500.50161893 401.33203125 568.70703125 C398.94877049 571.86008912 396.50490137 574.94277566 394 578 C393.55462891 578.54688477 393.10925781 579.09376953 392.65039062 579.65722656 C385.67098268 588.16247749 378.12670999 596.07184516 370.375 603.875 C369.51672607 604.74253906 368.65845215 605.61007812 367.77416992 606.50390625 C361.82567601 612.42350472 355.58309985 617.79981043 349 623 C348.27828613 623.57572754 347.55657227 624.15145508 346.81298828 624.74462891 C303.1729257 659.32351632 251.88062172 681.80123411 197 691 C196.05817871 691.16371094 195.11635742 691.32742188 194.14599609 691.49609375 C117.4079394 704.34995062 33.06209742 682.52287545 -30.11816406 638.12304688 C-51.11397173 623.02350887 -71.36771855 605.882993 -88 586 C-88.45358887 585.46020508 -88.90717773 584.92041016 -89.37451172 584.36425781 C-146.27969786 516.38356564 -166.98148274 434.6271752 -159.28515625 346.94921875 C-153.21238184 281.7481922 -132.93113013 217.09643464 -99.6875 160.75 C-99.1705809 159.87313034 -99.1705809 159.87313034 -98.64321899 158.97854614 C-92.4344498 148.47585835 -92.4344498 148.47585835 -89.01953125 143.890625 C-86.71364068 141.17782713 -86.71364068 141.17782713 -87 138 C-88.69267769 136.39304552 -88.69267769 136.39304552 -90.9375 134.875 C-107.94934008 122.06953039 -118.8361067 103.8188713 -122.5625 82.83203125 C-125.15138746 60.15615091 -121.8845334 37.68858196 -108 19 C-105.12917943 15.53363686 -102.10513062 12.25619103 -99 9 C-98.18982422 8.06027344 -98.18982422 8.06027344 -97.36328125 7.1015625 C-73.28985071 -19.70059442 -27.78412152 -19.66490102 0 0 Z M0 92 C-0.57073242 92.42506836 -1.14146484 92.85013672 -1.72949219 93.28808594 C-11.4244259 100.55518515 -20.29315799 108.58400867 -29 117 C-29.50901855 117.47985352 -30.01803711 117.95970703 -30.54248047 118.45410156 C-31.73360201 119.59714343 -32.87275807 120.79391507 -34 122 C-34 122.66 -34 123.32 -34 124 C-34.57878906 124.23589844 -35.15757812 124.47179687 -35.75390625 124.71484375 C-40.57902131 127.47564871 -43.62344611 132.66959045 -47 137 C-47.49741699 137.62922363 -47.99483398 138.25844727 -48.50732422 138.90673828 C-64.38272569 159.00447733 -78.01496835 180.78678971 -89.01416016 203.93359375 C-89.67959836 205.32841023 -90.35399025 206.71898537 -91.03662109 208.10546875 C-102.25477864 230.94151719 -110.37006404 255.9972261 -115 281 C-115.23074219 282.17820312 -115.46148437 283.35640625 -115.69921875 284.5703125 C-122.67886919 325.65619807 -113.80248219 368.92502569 -89.99609375 403.265625 C-76.99009178 421.08206606 -61.47121598 437.6250793 -43.69873047 450.74560547 C-42.04964959 451.96333722 -40.4173493 453.2011789 -38.78515625 454.44140625 C-10.59539493 475.53601627 22.45797167 490.03351822 55 503 C56.10134277 503.44102051 57.20268555 503.88204102 58.33740234 504.33642578 C78.0165833 512.15542661 97.94650543 518.31284437 119 521 C119.68545898 521.0942627 120.37091797 521.18852539 121.07714844 521.28564453 C129.92666319 522.35132285 138.84987006 522.24380119 147.75 522.25 C148.62026825 522.25067474 149.4905365 522.25134949 150.38717651 522.25204468 C163.80991056 522.23552733 176.80848368 521.6708494 190 519 C190.90411621 518.82307617 191.80823242 518.64615234 192.73974609 518.46386719 C195.58243804 517.89679789 198.41699153 517.30105081 201.25 516.6875 C202.4721521 516.4232019 202.4721521 516.4232019 203.71899414 516.15356445 C218.48275008 512.71038088 232.8204867 507.14888079 246.9375 501.6875 C247.69448181 501.39508423 248.45146362 501.10266846 249.23138428 500.8013916 C289.66697871 485.08081379 329.88714591 464.76066765 361.42236328 434.51025391 C362.4516459 433.52493321 363.48626437 432.54514765 364.52685547 431.57177734 C393.194203 404.75152868 414.41509985 364.13094222 416.11010742 324.42041016 C417.58319353 253.5506728 385.76763746 178.6974995 337.19921875 127.29296875 C336.13395267 126.19420594 335.06740215 125.09668783 334 124 C333.30600098 123.28021973 332.61200195 122.56043945 331.89697266 121.81884766 C322.14818979 111.74106136 312.36458676 102.22838517 301 94 C299.8279242 93.13308391 298.65605231 92.26589209 297.484375 91.3984375 C289.90603579 85.84112779 282.08670873 80.79356711 274 76 C272.97132813 75.36578125 271.94265625 74.7315625 270.8828125 74.078125 C239.5273165 55.27986601 199.68477022 42.7144784 163 42 C162.06236816 41.97953613 161.12473633 41.95907227 160.15869141 41.93798828 C101.81556343 40.86134981 46.90934444 56.85110104 0 92 Z "
		fill="#070707" transform="translate(337,35)" />
	<path
		d="M0 0 C2.64518738 -0.3742218 2.64518738 -0.3742218 6.04760742 -0.37231445 C7.32041061 -0.37854324 8.59321381 -0.38477203 9.90458679 -0.39118958 C11.30488465 -0.3824897 12.70517878 -0.37317044 14.10546875 -0.36328125 C15.54641214 -0.36276214 16.98735625 -0.36328182 18.42829895 -0.36479187 C21.46068804 -0.36470196 24.49281238 -0.35425084 27.52514648 -0.33618164 C31.36876702 -0.31375725 35.21199175 -0.31290006 39.05565929 -0.31969929 C42.0407091 -0.32308491 45.02567267 -0.31631997 48.01070595 -0.30657005 C49.42454892 -0.30277614 50.83840162 -0.30154508 52.25224876 -0.3031559 C74.4258033 -0.30737093 93.6668951 3.1077912 111 18 C131.23163956 40.72980722 133.5336039 73.89496904 132 103 C130.26376648 124.97098783 126.41898037 148.85376016 110 165 C98.30728767 174.57513451 85.85124667 179.41717449 71 182 C69.60104492 182.25910156 69.60104492 182.25910156 68.17382812 182.5234375 C62.125735 183.37090501 55.98837539 183.18331762 49.89453125 183.203125 C48.88562112 183.20736607 48.88562112 183.20736607 47.85632896 183.21169281 C44.30501293 183.22660438 40.75373677 183.23588764 37.20239258 183.24023438 C33.54051037 183.24574357 29.87899539 183.26984516 26.21722889 183.29820633 C23.39221617 183.31682826 20.56729265 183.3220378 17.74222374 183.32357025 C15.73694429 183.32805805 13.73171262 183.34669186 11.72651672 183.36553955 C9.89893074 183.3610379 9.89893074 183.3610379 8.03442383 183.35644531 C6.96299637 183.36009094 5.89156891 183.36373657 4.78767395 183.36749268 C1.47432423 182.93070137 0.31953874 182.39651774 -2 180 C-2.49777794 176.87496185 -2.49777794 176.87496185 -2.49447632 172.93981934 C-2.49930515 172.21658399 -2.50413398 171.49334865 -2.50910914 170.74819708 C-2.52040564 168.31809511 -2.50304272 165.88903954 -2.48583984 163.45898438 C-2.48798509 161.71958633 -2.49186186 159.98018968 -2.49734497 158.24079895 C-2.50705457 153.51144651 -2.49171496 148.78247045 -2.47143888 144.05316353 C-2.45389747 139.10978738 -2.4573924 134.16642338 -2.4581604 129.22302246 C-2.45628617 120.92059006 -2.43890579 112.61830369 -2.41162109 104.31591797 C-2.38016899 94.70980003 -2.36962483 85.10384208 -2.3710922 75.49767637 C-2.37231199 66.26643873 -2.36210819 57.03525333 -2.34550858 47.80403137 C-2.33843792 43.87107435 -2.33478136 39.9381358 -2.33372116 36.00517273 C-2.33171526 31.37588817 -2.31953007 26.74673848 -2.29938889 22.1174984 C-2.29353643 20.41590386 -2.29108865 18.7142938 -2.29224396 17.01268959 C-2.29322224 14.69504222 -2.28194541 12.37777516 -2.26742554 10.06018066 C-2.26407385 8.76158363 -2.26072216 7.4629866 -2.25726891 6.12503815 C-2 3 -2 3 0 0 Z "
		fill="#080808" transform="translate(572,768)" />
	<path
		d="M0 0 C0.84783051 -0.0127597 1.69566101 -0.02551941 2.56918335 -0.03866577 C3.48688507 -0.04089142 4.40458679 -0.04311707 5.35009766 -0.04541016 C6.76326767 -0.05539536 6.76326767 -0.05539536 8.20498657 -0.06558228 C10.20060266 -0.07571943 12.19625272 -0.08039897 14.19189453 -0.08007812 C17.24519835 -0.08444553 20.29705035 -0.1207378 23.35009766 -0.15869141 C25.2875927 -0.16456048 27.22509463 -0.16852927 29.16259766 -0.17041016 C30.07625092 -0.18478119 30.98990417 -0.19915222 31.9312439 -0.21395874 C38.17094195 -0.16900743 38.17094195 -0.16900743 41.24804688 1.79980469 C43.52175266 5.25061493 45.21412436 8.8240379 46.87353516 12.60302734 C47.43269119 13.84673599 47.43269119 13.84673599 48.00314331 15.11557007 C49.22391659 17.83672804 50.43158212 20.56349126 51.63916016 23.29052734 C52.48652418 25.18622147 53.33467763 27.08156291 54.18359375 28.9765625 C56.34704756 33.81214799 58.49951015 38.65253268 60.64807129 43.49475098 C62.19595996 46.98164921 63.74830628 50.46655135 65.30090332 53.95135498 C67.94939494 59.89602325 70.5936477 65.84252308 73.22811317 71.79342079 C76.33548307 78.8105058 79.46921307 85.81528742 82.62109375 92.8125 C83.03360886 93.72872635 83.44612396 94.6449527 83.87113953 95.58894348 C84.87696487 97.82288659 85.88297506 100.05674625 86.88916016 102.29052734 C86.89795952 100.41797775 86.89795952 100.41797775 86.90693665 98.50759888 C86.96405578 86.76460969 87.03676027 75.02180761 87.12487507 63.27900887 C87.16967496 57.24135792 87.20890969 51.20377596 87.2355957 45.16601562 C87.2615329 39.34336227 87.30186673 33.52097304 87.35234642 27.69848251 C87.36908021 25.47288158 87.38055374 23.24723489 87.38677406 21.02157974 C87.39634455 17.91319078 87.42431856 14.80548761 87.45678711 11.69726562 C87.45463448 10.30544067 87.45463448 10.30544067 87.45243835 8.88549805 C87.47124557 7.61925095 87.47124557 7.61925095 87.49043274 6.3274231 C87.4950417 5.59183229 87.49965067 4.85624149 87.5043993 4.09836006 C87.88916016 2.29052734 87.88916016 2.29052734 90.88916016 0.29052734 C93.5513199 0.09490243 96.10626864 0.0104148 98.76806641 0.02490234 C99.91987648 0.02203217 99.91987648 0.02203217 101.09495544 0.019104 C102.71638314 0.01774417 104.33782179 0.02142656 105.95922852 0.02978516 C108.44588545 0.04050246 110.93182235 0.02987586 113.41845703 0.01708984 C114.99332842 0.01841119 116.56819936 0.02097306 118.14306641 0.02490234 C118.88891495 0.02085388 119.63476349 0.01680542 120.4032135 0.01263428 C125.65922769 0.06059488 125.65922769 0.06059488 127.88916016 2.29052734 C128.14084244 5.32654572 128.14084244 5.32654572 128.14312744 9.31311035 C128.14780741 10.40999074 128.14780741 10.40999074 128.15258193 11.52903032 C128.16059196 13.9919278 128.15422671 16.45458094 128.14794922 18.91748047 C128.15065775 20.67805629 128.1542179 22.43863097 128.15856934 24.19920349 C128.16771202 28.99041696 128.16414137 33.7815446 128.15781116 38.57275963 C128.15276087 43.57800916 128.15743991 48.58325116 128.1605835 53.58850098 C128.16422598 61.99521204 128.15941665 70.40188801 128.14990234 78.80859375 C128.13901726 88.53910208 128.14254263 98.26952661 128.15355515 108.0000329 C128.16262 116.34229327 128.16391725 124.68452835 128.15867782 133.02679205 C128.15555369 138.01458454 128.15516087 143.00233758 128.16175079 147.99012756 C128.16751198 152.6784719 128.16354997 157.36670779 128.15196228 162.05504036 C128.1493091 163.77963645 128.15009193 165.50424162 128.15448761 167.22883415 C128.1599187 169.57532904 128.15313895 171.92147212 128.14312744 174.26794434 C128.14199636 176.24129383 128.14199636 176.24129383 128.14084244 178.25450897 C127.88916016 181.29052734 127.88916016 181.29052734 125.88916016 183.29052734 C118.60339029 184.67578804 111.21798502 184.43863727 103.82666016 184.41552734 C101.96557617 184.42132812 101.96557617 184.42132812 100.06689453 184.42724609 C96.67183433 184.42361307 93.28301081 184.37831336 89.88916016 184.29052734 C89.13393066 184.2721582 88.37870117 184.25378906 87.60058594 184.23486328 C84.40363682 183.99123753 83.10218495 183.52092483 80.90136719 181.140625 C78.7843288 178.14204381 77.30802391 175.23618373 75.81494141 171.88427734 C75.53396103 171.25964096 75.25298065 170.63500458 74.96348572 169.99143982 C74.35541777 168.63754978 73.75063335 167.28218119 73.14880371 165.92550659 C71.84655861 162.99008435 70.52840998 160.06188718 69.2114563 157.13304138 C68.513742 155.58081441 67.81687766 154.02820514 67.12081909 152.47523499 C63.18524779 143.69935107 59.16305585 134.96367004 55.13916016 126.22802734 C53.81068412 123.34147005 52.48272078 120.45467703 51.15478516 117.56787109 C50.66681709 116.50740067 50.66681709 116.50740067 50.16899109 115.42550659 C45.39735599 105.05254818 40.64441755 94.67100093 35.88916016 84.29052734 C35.88329391 85.48656082 35.87742767 86.6825943 35.87138367 87.91487122 C35.81423591 99.17192107 35.74151614 110.42877627 35.65344524 121.68562794 C35.60866749 127.47326587 35.56942775 133.2608322 35.54272461 139.04858398 C35.51676548 144.63134493 35.4764157 150.2138314 35.42597389 155.79642296 C35.40925506 157.92909018 35.39777214 160.06180492 35.39154625 162.19452858 C35.38195965 165.17579733 35.35396585 168.15635588 35.3215332 171.13745117 C35.32296829 172.02433624 35.32440338 172.91122131 35.32588196 173.82498169 C35.31334381 174.63686447 35.30080566 175.44874725 35.28788757 176.28523254 C35.28097413 177.34298999 35.28097413 177.34298999 35.27392101 178.42211628 C34.76442985 180.89622171 33.8925826 181.78525027 31.88916016 183.29052734 C29.19529529 183.57660979 26.73755914 183.68728293 24.04541016 183.65380859 C23.27990845 183.6543071 22.51440674 183.6548056 21.72570801 183.65531921 C20.10845339 183.65298041 18.49119502 183.64326322 16.87402344 183.62670898 C14.39826924 183.60311416 11.92359199 183.6061494 9.44775391 183.61279297 C7.8761329 183.60721608 6.30451643 183.60010613 4.73291016 183.59130859 C3.9922229 183.59222 3.25153564 183.59313141 2.48840332 183.59407043 C-1.2481979 183.54251214 -2.92255121 183.4160531 -6.11083984 181.29052734 C-6.48556995 178.25450897 -6.48556995 178.25450897 -6.48506165 174.26794434 C-6.48903605 173.53669075 -6.49301046 172.80543715 -6.4971053 172.05202436 C-6.50676962 169.58901293 -6.49488568 167.12657001 -6.4831543 164.66357422 C-6.48558091 162.90299769 -6.48929895 161.14242253 -6.49421692 159.3818512 C-6.5036475 154.5905927 -6.49418236 149.7995377 -6.48088479 145.00829506 C-6.46959644 140.0030475 -6.47367577 134.99781034 -6.47563171 129.99255371 C-6.47651552 121.58582216 -6.46541622 113.17917111 -6.44702148 104.77246094 C-6.42585254 95.04194801 -6.42234347 85.31155307 -6.42858344 75.58102179 C-6.43427085 66.23499329 -6.4286388 56.8890065 -6.4174099 47.54298401 C-6.41275564 43.55895723 -6.41189362 39.57495589 -6.41399574 35.59092712 C-6.4158743 30.90257344 -6.40780818 26.21434048 -6.39193535 21.52601433 C-6.38767942 19.80142148 -6.38685068 18.07681641 -6.38962555 16.35222054 C-6.39282926 14.00571635 -6.38381178 11.659577 -6.37153625 9.31311035 C-6.36948339 7.99754402 -6.36743052 6.68197769 -6.36531544 5.32654572 C-5.97356998 0.65283071 -4.30176449 0.04387959 0 0 Z "
		fill="#080808" transform="translate(417.11083984375,767.70947265625)" />
	<path
		d="M0 0 C1.24849731 0.00241699 1.24849731 0.00241699 2.5222168 0.00488281 C11.7722498 0.18849736 19.31083611 2.67485063 26.6875 8.375 C27.23792969 8.77074219 27.78835938 9.16648438 28.35546875 9.57421875 C36.9950315 16.23030573 41.66826174 26.1153136 44.6875 36.375 C45.04585937 37.58800781 45.40421875 38.80101562 45.7734375 40.05078125 C49.77212926 56.46412816 47.39053289 77.52137704 38.90625 92.02734375 C35.43847163 97.40854648 31.50401659 102.4630815 27.60546875 107.53515625 C23.6926548 112.64107012 20.15944169 117.96205154 16.6875 123.375 C16.30916016 123.95121094 15.93082031 124.52742188 15.54101562 125.12109375 C10.30676338 133.09468895 5.71199463 141.1580395 1.5625 149.75 C-5.05596981 163.32284421 -12.69244386 173.43306909 -27.3125 178.8125 C-41.34629689 182.9547912 -55.3989655 179.12422048 -68.05078125 172.39453125 C-73.07806191 169.28183173 -77.20612978 165.60669929 -81.3125 161.375 C-81.95832031 160.73820313 -82.60414063 160.10140625 -83.26953125 159.4453125 C-93.97323802 148.20525441 -98.69494227 132.64773587 -98.4609375 117.390625 C-96.69445263 81.50309023 -77.04985721 54.10634243 -52.87841797 29.00390625 C-51.53484079 27.60628434 -50.20542748 26.19507038 -48.87890625 24.78125 C-35.54880962 10.88859883 -19.83525723 -0.04017267 0 0 Z "
		fill="#080808" transform="translate(391.3125,213.625)" />
	<path
		d="M0 0 C1.05243896 -0.01466309 2.10487793 -0.02932617 3.18920898 -0.04443359 C24.40107133 0.23046446 39.15702608 15.11089981 53.16796875 29.32421875 C74.71287989 51.55134873 95.22698943 79.5081801 96.4375 111.5625 C96.53224609 112.81160156 96.53224609 112.81160156 96.62890625 114.0859375 C97.40235435 130.70259667 90.90131833 147.8488546 80.4375 160.5625 C69.84790947 172.03984063 56.14386687 178.60216461 40.67578125 179.87109375 C28.51840922 180.27674924 20.24965451 177.57028531 10.82421875 169.953125 C4.60469669 163.72342369 0.70609419 156.57477897 -3.1875 148.75 C-10.71566699 134.01323576 -19.26139712 120.34255162 -29.32617188 107.21289062 C-33.87428505 101.25141957 -37.87716457 95.10330115 -41.5625 88.5625 C-42.19091797 87.47001953 -42.19091797 87.47001953 -42.83203125 86.35546875 C-47.95409081 76.32237082 -49.57967562 62.66424533 -48.5625 51.5625 C-48.50352539 50.91732422 -48.44455078 50.27214844 -48.38378906 49.60742188 C-46.85012588 34.5707064 -41.93971523 20.45572993 -30.74609375 9.83984375 C-28.74261556 8.30249919 -26.69738846 6.91218372 -24.5625 5.5625 C-23.80195312 5.07136719 -23.04140625 4.58023438 -22.2578125 4.07421875 C-15.01903736 0.26151078 -8.06231105 0.06971149 0 0 Z "
		fill="#080808" transform="translate(582.5625,214.4375)" />
	<path
		d="M0 0 C0.68499573 -0.00511093 1.36999146 -0.01022186 2.07574463 -0.01548767 C4.35323729 -0.02944334 6.63042845 -0.02841933 8.90795898 -0.02612305 C10.50105399 -0.03001312 12.09414796 -0.03434843 13.6872406 -0.03910828 C17.0407139 -0.04658787 20.39408204 -0.04627134 23.74755859 -0.04101562 C27.99684168 -0.03528666 32.24567948 -0.05198143 36.49488926 -0.0753603 C39.79569421 -0.09028691 43.0963974 -0.09094289 46.39723015 -0.08785057 C47.96015221 -0.08835663 49.5230811 -0.0934563 51.08596992 -0.10366249 C64.65967073 -0.18126843 79.70895974 0.20920573 91.84155273 6.9621582 C92.49752441 7.31101074 93.15349609 7.65986328 93.8293457 8.01928711 C106.34886374 14.91880868 113.36344993 24.47952236 117.52905273 38.0871582 C122.80362211 58.77969961 121.80197415 82.24057573 111.34155273 101.2746582 C102.27843801 114.95703785 89.95038241 121.43121364 74.18994141 125.03027344 C63.2125512 127.19185321 51.8884275 127.01427301 40.73974609 127.1328125 C38.38938542 127.0054512 38.38938542 127.0054512 37.34155273 128.2746582 C37.23438458 129.8850712 37.19532668 131.50007964 37.18383789 133.11401367 C37.16844467 134.66099442 37.16844467 134.66099442 37.15274048 136.23922729 C37.14543915 137.36209137 37.13813782 138.48495544 37.13061523 139.6418457 C37.10254897 141.99471727 37.07388452 144.34758177 37.04467773 146.70043945 C37.00336276 150.42911603 36.96649627 154.15766023 36.94018555 157.88647461 C36.91266027 161.47187962 36.86678756 165.05667393 36.81811523 168.6418457 C36.81486237 169.76066132 36.8116095 170.87947693 36.80825806 172.03219604 C36.79169159 173.06982086 36.77512512 174.10744568 36.75805664 175.17651367 C36.74996979 176.09061005 36.74188293 177.00470642 36.73355103 177.94650269 C36.34155273 180.2746582 36.34155273 180.2746582 35.0643158 182.07002258 C31.93962946 184.2549478 28.05053949 183.67768075 24.36889648 183.63793945 C23.49004288 183.63843796 22.61118927 183.63893646 21.70570374 183.63945007 C19.84886411 183.63711038 17.99202127 183.627388 16.13525391 183.61083984 C13.28641557 183.58721925 10.43851115 183.59028301 7.58959961 183.59692383 C5.78685963 183.59134804 3.98412361 183.58423879 2.18139648 183.57543945 C1.32617905 183.57635086 0.47096161 183.57726227 -0.41017151 183.57820129 C-6.42741586 183.50568961 -6.42741586 183.50568961 -8.65844727 181.2746582 C-8.91012955 178.23863983 -8.91012955 178.23863983 -8.91241455 174.2520752 C-8.91553453 173.5208216 -8.91865451 172.78956801 -8.92186904 172.03615522 C-8.92987907 169.57325775 -8.92351382 167.11060461 -8.91723633 164.64770508 C-8.91994486 162.88712926 -8.92350501 161.12655458 -8.92785645 159.36598206 C-8.93699912 154.57476859 -8.93342848 149.78364095 -8.92709827 144.99242592 C-8.92204798 139.98717638 -8.92672701 134.98193438 -8.92987061 129.97668457 C-8.93351309 121.56997351 -8.92870376 113.16329754 -8.91918945 104.7565918 C-8.90830437 95.02608347 -8.91182974 85.29565894 -8.92284226 75.56515265 C-8.93190711 67.22289228 -8.93320436 58.8806572 -8.92796493 50.5383935 C-8.9248408 45.55060101 -8.92444798 40.56284796 -8.9310379 35.57505798 C-8.93679909 30.88671365 -8.93283707 26.19847776 -8.92124939 21.51014519 C-8.91859621 19.78554909 -8.91937904 18.06094393 -8.92377472 16.33635139 C-8.92920581 13.98985651 -8.92242606 11.64371342 -8.91241455 9.29724121 C-8.9116605 7.98167488 -8.91090645 6.66610855 -8.91012955 5.31067657 C-8.41827394 -0.62252872 -5.11804222 0.01899963 0 0 Z "
		fill="#080808" transform="translate(133.658447265625,767.725341796875)" />
	<path
		d="M0 0 C1.01129974 -0.00960754 2.02259949 -0.01921509 3.06454468 -0.02911377 C4.71603012 -0.03548859 4.71603012 -0.03548859 6.40087891 -0.04199219 C7.52434723 -0.04769226 8.64781555 -0.05339233 9.80532837 -0.05926514 C12.18775485 -0.06873209 14.57019453 -0.07525581 16.95263672 -0.07910156 C20.60488651 -0.08880725 24.25657386 -0.11981542 27.90869141 -0.15136719 C30.21858388 -0.15789678 32.5284804 -0.16314742 34.83837891 -0.16699219 C35.93532074 -0.17933899 37.03226257 -0.19168579 38.16244507 -0.20440674 C39.18004913 -0.20140564 40.1976532 -0.19840454 41.24609375 -0.1953125 C42.14242523 -0.19895813 43.03875671 -0.20260376 43.96224976 -0.20635986 C46.25244141 0.16113281 46.25244141 0.16113281 47.95715332 1.34346008 C49.62748767 3.68743377 50.23863993 5.81787256 50.98339844 8.6003418 C51.28873505 9.72263687 51.59407166 10.84493195 51.90866089 12.00123596 C52.23093658 13.22833786 52.55321228 14.45543976 52.88525391 15.71972656 C53.23470167 17.02196331 53.58490788 18.32399673 53.93582153 19.62583923 C55.05664698 23.80028201 56.15547176 27.98036961 57.25244141 32.16113281 C57.6102128 33.51982156 57.96808115 34.87848479 58.3260498 36.23712158 C60.75393988 45.46229217 63.14768943 54.696216 65.53496933 63.93196487 C67.38893463 71.10305867 69.24709318 78.2730641 71.10791016 85.44238281 C71.42288295 86.6562501 71.42288295 86.6562501 71.74421883 87.89463997 C74.72961165 99.39246982 77.76524297 110.87600579 80.84506226 122.34889412 C81.48457412 124.73197091 82.12286169 127.11537218 82.76074219 129.49888611 C83.17673765 131.05289236 83.59275309 132.60689326 84.00878906 134.16088867 C84.21167164 134.91875388 84.41455421 135.67661909 84.62358475 136.45744991 C85.81967806 140.92135696 87.02480409 145.38270822 88.23636723 149.84243965 C88.98432772 152.60352148 89.72416319 155.36673445 90.46193504 158.1305542 C90.96538359 160.00599915 91.47912919 161.87867059 91.99324036 163.7512207 C93.57315905 169.69605258 94.86592555 175.00127902 94.25244141 181.16113281 C91.65787138 183.75570284 89.84556365 183.41978684 86.30909729 183.4646759 C85.09189247 183.46330879 85.09189247 183.46330879 83.85009766 183.46191406 C83.01659286 183.46619919 82.18308807 183.47048431 81.32432556 183.47489929 C79.55989491 183.48064716 77.79544055 183.4811395 76.03100586 183.47680664 C73.32901608 183.47364926 70.62812362 183.49709026 67.92626953 183.52246094 C66.21338029 183.52473412 64.5004881 183.52543734 62.78759766 183.52441406 C61.97815201 183.53362381 61.16870636 183.54283356 60.33473206 183.55232239 C54.67845435 183.50560251 54.67845435 183.50560251 52.56983948 181.80059814 C50.72188057 179.50086458 50.32764254 177.33824763 49.68212891 174.46972656 C49.42560547 173.36048828 49.16908203 172.25125 48.90478516 171.10839844 C48.64826172 169.95017578 48.39173828 168.79195312 48.12744141 167.59863281 C47.60592365 165.30522667 47.08257878 163.012235 46.55712891 160.71972656 C46.33009277 159.70193115 46.10305664 158.68413574 45.86914062 157.63549805 C45.35238417 155.17965744 45.35238417 155.17965744 44.25244141 153.16113281 C28.74244141 153.16113281 13.23244141 153.16113281 -2.74755859 153.16113281 C-5.01579871 161.66703326 -7.22228345 169.97100802 -9.03662109 178.55175781 C-9.74755859 181.16113281 -9.74755859 181.16113281 -11.74755859 184.16113281 C-14.68025357 184.47765885 -17.39745361 184.60510851 -20.33349609 184.59472656 C-21.18682526 184.59996841 -22.04015442 184.60521027 -22.91934204 184.61061096 C-24.72665315 184.61704095 -26.53400605 184.61568155 -28.34130859 184.60717773 C-31.10509093 184.59868648 -33.86679418 184.62738327 -36.63037109 184.65917969 C-38.38557881 184.66079225 -40.14079018 184.66021312 -41.89599609 184.65722656 C-42.72215424 184.66846054 -43.54831238 184.67969452 -44.39950562 184.69126892 C-47.97997089 184.64787626 -50.20343287 184.46661314 -53.36328125 182.69262695 C-57.20276554 175.67117852 -52.12733338 164.52584 -50.13427734 157.35644531 C-49.76457589 156.00798418 -49.3954592 154.6593626 -49.02688599 153.31059265 C-48.0418152 149.71259631 -47.04831002 146.11698067 -46.05304337 142.52179337 C-45.01300177 138.75927352 -43.98083052 134.99459455 -42.94750977 131.23022461 C-38.07370522 113.49019874 -33.15682272 95.76187811 -28.17626953 78.05151367 C-25.32305949 67.89212085 -22.53610262 57.7162999 -19.78662109 47.52832031 C-19.44626328 46.26970688 -19.10590546 45.01109344 -18.75523376 43.71434021 C-17.07363468 37.49588259 -15.39798317 31.2759471 -13.7331543 25.05297852 C-13.12236319 22.79077377 -12.51129284 20.52864439 -11.89990234 18.26660156 C-11.62542267 17.23119232 -11.35094299 16.19578308 -11.06814575 15.1289978 C-6.9717759 0.05320349 -6.9717759 0.05320349 0 0 Z "
		fill="#080808" transform="translate(302.74755859375,767.8388671875)" />
	<path
		d="M0 0 C0.87253418 -0.00016617 1.74506836 -0.00033234 2.64404297 -0.00050354 C3.6351709 -0.00988449 4.62629883 -0.01926544 5.64746094 -0.02893066 C6.71625488 -0.01769669 7.78504883 -0.00646271 8.88623047 0.00511169 C9.98467285 0.00365646 11.08311523 0.00220123 12.21484375 0.0007019 C14.53827567 0.00236262 16.86171838 0.013943 19.18505859 0.03465271 C22.74738147 0.06359294 26.3082158 0.05526741 29.87060547 0.04222107 C32.12582106 0.04845864 34.38103193 0.05684971 36.63623047 0.06761169 C37.70502441 0.06467606 38.77381836 0.06174042 39.875 0.05871582 C40.86612793 0.07139999 41.85725586 0.08408417 42.87841797 0.09715271 C43.75095215 0.10255569 44.62348633 0.10795868 45.52246094 0.11352539 C48.3125656 0.59667826 49.11431663 1.21498157 50.76123047 3.50120544 C51.65057373 5.858078 51.65057373 5.858078 52.38916016 8.70335388 C52.67592621 9.78697205 52.96269226 10.87059021 53.25814819 11.98704529 C53.56338409 13.18281189 53.86862 14.37857849 54.18310547 15.61058044 C54.69516811 17.56264022 55.20723087 19.51469997 55.71929741 21.46675873 C56.27275948 23.58494588 56.82105035 25.70441157 57.36785889 27.82432556 C58.52244789 32.30027748 59.69069879 36.77258983 60.86132812 41.24436951 C62.12322068 46.06740654 63.3840302 50.89071606 64.64016724 55.71525574 C68.03631352 68.75665433 71.47303926 81.7870554 74.92529297 94.81370544 C75.44726732 96.7838588 75.96923998 98.75401261 76.49121094 100.72416687 C77.52771121 104.63593251 78.56439725 108.54764887 79.60119629 112.45933533 C81.832783 120.87908876 84.06368145 129.29902162 86.29023361 137.72010803 C86.73535972 139.4028548 87.18088059 141.0854972 87.62685013 142.76802063 C88.82556652 147.29063647 90.01630349 151.81519574 91.19579315 156.34286499 C91.77242935 158.54395289 92.35980339 160.74202333 92.94708252 162.94029236 C93.31874768 164.36052836 93.68992349 165.78089254 94.06054688 167.20140076 C94.55260117 169.06070221 94.55260117 169.06070221 95.05459595 170.95756531 C95.77426184 174.56655531 95.88938278 177.83147969 95.76123047 181.50120544 C91.94569604 184.00821725 88.0056332 183.82419999 83.60107422 183.83714294 C82.81479141 183.84379974 82.02850861 183.85045654 81.21839905 183.85731506 C79.56009251 183.8674196 77.90174549 183.87213276 76.2434082 183.87181091 C73.7037514 183.87619677 71.16581579 183.91257113 68.62646484 183.95042419 C67.01384057 183.95629028 65.40120806 183.96026107 63.78857422 183.96214294 C63.02915024 183.97651398 62.26972626 183.99088501 61.48728943 184.00569153 C56.2863584 183.96046508 56.2863584 183.96046508 53.85766602 181.83641052 C52.58752291 179.13124045 51.84684853 176.59502494 51.19091797 173.67698669 C50.93439453 172.56645935 50.67787109 171.45593201 50.41357422 170.31175232 C50.15705078 169.15739685 49.90052734 168.00304138 49.63623047 166.81370544 C49.11579661 164.5174497 48.59251714 162.22183639 48.06591797 159.92698669 C47.83888184 158.91031921 47.6118457 157.89365173 47.37792969 156.84617615 C46.98703653 154.55900876 46.98703653 154.55900876 45.76123047 153.50120544 C44.3183326 153.40824729 42.87093262 153.38374032 41.42504883 153.38768005 C40.04373024 153.38779335 40.04373024 153.38779335 38.63450623 153.38790894 C37.13295738 153.39565086 37.13295738 153.39565086 35.60107422 153.40354919 C34.07166954 153.40567162 34.07166954 153.40567162 32.5113678 153.40783691 C29.2404594 153.41345448 25.96961834 153.42600994 22.69873047 153.43870544 C20.48714291 153.44371818 18.27555429 153.44828148 16.06396484 153.45237732 C10.6296969 153.46342961 5.19546849 153.48018481 -0.23876953 153.50120544 C-0.87708578 156.02555058 -1.5135242 158.55034527 -2.14892578 161.07542419 C-2.32766235 161.7814679 -2.50639893 162.4875116 -2.69055176 163.21495056 C-4.01779443 168.49807575 -5.18062479 173.80082127 -6.23486328 179.14573669 C-7.62321462 182.4032303 -9.04440821 183.00066271 -12.23876953 184.50120544 C-14.98562666 184.79979648 -17.49899532 184.94587476 -20.24267578 184.93479919 C-21.00297592 184.94004105 -21.76327606 184.9452829 -22.5466156 184.95068359 C-24.14768252 184.95708478 -25.74879658 184.95579149 -27.34985352 184.94725037 C-29.79739896 184.93871894 -32.242625 184.96755833 -34.68994141 184.99925232 C-36.2491855 185.00086403 -37.80843372 185.00028738 -39.36767578 184.99729919 C-40.09692764 185.00853317 -40.8261795 185.01976715 -41.57752991 185.03134155 C-44.7606997 184.98770312 -46.99178017 184.63715228 -49.79321289 183.09519958 C-53.91812872 175.6932015 -48.79091276 164.35766929 -46.68798828 156.81370544 C-46.31734209 155.46095996 -45.94745015 154.10800762 -45.57824707 152.75486755 C-44.78497679 149.85327411 -43.98680518 146.95309275 -43.18466187 144.05393982 C-41.90804462 139.43957189 -40.64235524 134.82225213 -39.37866211 130.20433044 C-38.04785934 125.34274148 -36.71652277 120.48130421 -35.38163757 115.62083435 C-32.14056789 103.81731842 -28.92961047 92.00589504 -25.73876953 80.18870544 C-25.51474771 79.35906281 -25.2907259 78.52942017 -25.05991554 77.67463684 C-23.72991242 72.74821934 -22.40084883 67.82154872 -21.07199478 62.89482117 C-20.020353 58.99652805 -18.96787144 55.09846184 -17.9152832 51.20042419 C-17.71449378 50.45664017 -17.51370436 49.71285614 -17.30683041 48.9465332 C-16.33654563 45.3530291 -15.36501939 41.75986972 -14.39067078 38.16746521 C-12.71808411 31.99801134 -11.05651428 25.82641173 -9.44042969 19.64183044 C-9.03284172 18.09906433 -9.03284172 18.09906433 -8.61701965 16.52513123 C-8.12644958 14.66606705 -7.64266649 12.80519087 -7.16752625 10.94212341 C-6.95425186 10.13919861 -6.74097748 9.3362738 -6.52124023 8.50901794 C-6.3440596 7.82468689 -6.16687897 7.14035583 -5.98432922 6.43528748 C-4.70882065 3.12644684 -3.6120286 0.80864438 0 0 Z "
		fill="#080808" transform="translate(758.23876953125,767.4987945556641)" />
	<path
		d="M0 0 C1.04641159 -0.0033284 2.09282318 -0.0066568 3.17094421 -0.01008606 C5.37364262 -0.01512304 7.57634858 -0.01749539 9.77905273 -0.01733398 C13.11650393 -0.01951802 16.45362283 -0.03770192 19.79101562 -0.05664062 C21.9440093 -0.05957587 24.09700453 -0.06155979 26.25 -0.0625 C27.72246941 -0.07327827 27.72246941 -0.07327827 29.22468567 -0.08427429 C41.50967447 -0.04453304 54.43294222 1.39615158 63.875 10.046875 C67.18025769 13.82543928 68.97295927 16.45625441 69.07421875 21.41796875 C69.11289062 22.53945313 69.11289062 22.53945313 69.15234375 23.68359375 C67.59674216 35.46172005 54.36607936 44.9534176 45.52685547 51.88818359 C37.93422522 57.59517639 29.81408366 62.08341014 20.82421875 65.16796875 C21.73475761 74.58733629 23.62652706 80.53959826 30.75 86.8828125 C40.49927796 94.62544296 50.57674232 96.06814559 62.82421875 95.16796875 C75.09143265 92.78796605 82.42395874 86.95750911 90.82421875 78.16796875 C96.53650582 72.2894511 96.53650582 72.2894511 101.13671875 71.85546875 C105.51855399 72.22681072 106.98378441 72.82628129 109.82421875 76.16796875 C111.14881451 80.28118715 111.61381267 82.47344696 109.78125 86.40625 C108.25082215 88.78190074 106.59633998 90.96729533 104.82421875 93.16796875 C104.30472656 93.86148438 103.78523437 94.555 103.25 95.26953125 C88.11864198 114.2478447 59.25511395 119.7288266 36.39477539 122.45800781 C28.28045222 123.30140771 20.16216987 123.41110007 12.01171875 123.41796875 C10.9246463 123.41898087 10.9246463 123.41898087 9.81561279 123.42001343 C-13.43900699 123.38581452 -37.00879657 120.39652689 -58.17578125 110.16796875 C-58.95953125 109.79027344 -59.74328125 109.41257812 -60.55078125 109.0234375 C-70.80664361 103.69964784 -80.91610114 95.68732898 -86.17578125 85.16796875 C-86.57025673 80.98652864 -86.62613311 78.85850827 -84.30078125 75.29296875 C-81.58845735 72.58064485 -80.71336972 72.22882782 -76.86328125 71.79296875 C-72.1202409 72.27531184 -71.22689312 73.58291231 -68.17578125 77.16796875 C-60.44652889 85.77647469 -51.53414813 91.64612886 -40.17578125 94.16796875 C-39.18578125 94.39484375 -38.19578125 94.62171875 -37.17578125 94.85546875 C-25.71416376 96.04938724 -15.41391571 94.51874241 -6.17578125 87.16796875 C0.72703498 80.62516334 3.20923964 73.51989239 3.82421875 64.16796875 C3.15390625 64.07257813 2.48359375 63.9771875 1.79296875 63.87890625 C-10.79063854 60.86546345 -20.86373087 52.6986779 -30.17578125 44.16796875 C-31.65304218 42.93651235 -33.13192618 41.70699714 -34.61328125 40.48046875 C-38.9195119 36.70339356 -44.59073416 31.19643587 -45.44921875 25.28515625 C-45.73476677 18.98113464 -44.424136 14.88394101 -40.17578125 10.16796875 C-29.05303647 0.31575795 -14.10874283 0.01589576 0 0 Z "
		fill="#090909" transform="translate(474.17578125,374.83203125)" />
	<path
		d="M0 0 C8.9976583 0.00678272 16.21495531 0.12946935 23.28515625 6.23046875 C35.52909717 18.78550799 35.43616795 35.98756418 35.43310547 52.48364258 C35.43747538 55.11019965 35.47390255 57.73506683 35.51171875 60.36132812 C35.59600284 72.93534547 35.2373838 86.80568251 26.55859375 96.8046875 C21.04934292 102.35709173 14.01449744 105.92410322 6.07958984 106.44189453 C5.40105957 106.44302246 4.7225293 106.44415039 4.0234375 106.4453125 C2.90582031 106.44724609 2.90582031 106.44724609 1.765625 106.44921875 C0.99734375 106.44535156 0.2290625 106.44148437 -0.5625 106.4375 C-1.33851563 106.44136719 -2.11453125 106.44523438 -2.9140625 106.44921875 C-8.68409734 106.43920133 -8.68409734 106.43920133 -10.9375 105.3125 C-10.9606206 91.76985822 -10.97841364 78.2272211 -10.98931217 64.68456364 C-10.99454162 58.39687976 -11.00164039 52.10920934 -11.01293945 45.8215332 C-11.02376614 39.75912277 -11.02977637 33.69672531 -11.03237724 27.63430595 C-11.03423189 25.31573723 -11.03785325 22.99716926 -11.04323006 20.67860603 C-11.05043758 17.44335492 -11.05149106 14.20815817 -11.05102539 10.97290039 C-11.05462067 10.00401886 -11.05821594 9.03513733 -11.06192017 8.03689575 C-11.0605455 7.16044907 -11.05917084 6.28400238 -11.05775452 5.3809967 C-11.05867631 4.61498673 -11.0595981 3.84897676 -11.06054783 3.05975437 C-10.72853268 -1.65479385 -3.53805048 0.0236169 0 0 Z "
		fill="#FFFFFF" transform="translate(623.9375,806.6875)" />
	<path
		d="M0 0 C26.51658768 0 26.51658768 0 32.84765625 5.6484375 C38.9331264 12.23743355 40.35876862 19.78914386 40.2109375 28.5703125 C39.62148567 35.35992438 37.65831197 41.59999167 32.8125 46.52734375 C23.05427349 54.45590279 12.79916327 52 0 52 C0 34.84 0 17.68 0 0 Z "
		fill="#FFFFFF" transform="translate(170,805)" />
	<path
		d="M0 0 C1.39327646 2.62264476 2.38943253 5.06619695 3.09741211 7.94799805 C3.28778549 8.71367599 3.47815887 9.47935394 3.67430115 10.26823425 C3.87330521 11.09108414 4.07230927 11.91393402 4.27734375 12.76171875 C4.48935928 13.62577835 4.70137482 14.48983795 4.91981506 15.38008118 C5.36845855 17.21447201 5.81464063 19.04946633 6.25854492 20.88500977 C6.92459429 23.63422971 7.60132921 26.38065151 8.27929688 29.12695312 C10.94780828 40.03733676 13.16993076 50.91690741 15 62 C5.43 62 -4.14 62 -14 62 C-12.87484089 50.74840889 -12.87484089 50.74840889 -11.80078125 46.19897461 C-11.56383545 45.18189926 -11.32688965 44.16482391 -11.08276367 43.1169281 C-10.82857666 42.05611526 -10.57438965 40.99530243 -10.3125 39.90234375 C-10.04993408 38.78686661 -9.78736816 37.67138947 -9.5168457 36.52210999 C-8.96513647 34.18434458 -8.41032238 31.84730992 -7.85253906 29.51098633 C-6.99549567 25.91861973 -6.14937157 22.3238062 -5.3046875 18.72851562 C-4.76626118 16.45297438 -4.2272209 14.17757829 -3.6875 11.90234375 C-3.43331299 10.82331284 -3.17912598 9.74428192 -2.91723633 8.6325531 C-2.68029053 7.6438472 -2.44334473 6.6551413 -2.19921875 5.63647461 C-1.99127686 4.76284775 -1.78333496 3.88922089 -1.5690918 2.98912048 C-1 1 -1 1 0 0 Z "
		fill="#FFFFFF" transform="translate(323,821)" />
	<path
		d="M0 0 C1.82584516 2.73876774 2.45702528 4.23183582 3.20507812 7.32861328 C3.41869995 8.2002713 3.63232178 9.07192932 3.85241699 9.97000122 C4.07643188 10.91060394 4.30044678 11.85120667 4.53125 12.8203125 C4.88612488 14.28016068 4.88612488 14.28016068 5.24816895 15.76950073 C6.00438059 18.88667547 6.75218127 22.00580237 7.5 25.125 C8.00337751 27.20325314 8.50727786 29.28137971 9.01171875 31.359375 C10.35398114 36.90326403 11.69300061 42.44767795 13 48 C13.29789429 49.24762115 13.29789429 49.24762115 13.60180664 50.52044678 C13.78541748 51.31017883 13.96902832 52.09991089 14.15820312 52.91357422 C14.32098755 53.60667694 14.48377197 54.29977966 14.65148926 55.0138855 C15 57 15 57 15 61 C5.43 61 -4.14 61 -14 61 C-12.87484735 49.74847352 -12.87484735 49.74847352 -11.80078125 45.29077148 C-11.56383545 44.29371689 -11.32688965 43.29666229 -11.08276367 42.26939392 C-10.82857666 41.23045486 -10.57438965 40.19151581 -10.3125 39.12109375 C-10.04993408 38.02781265 -9.78736816 36.93453156 -9.5168457 35.80812073 C-8.96523168 33.51739596 -8.41041718 31.22743971 -7.85253906 28.93823242 C-6.9953404 25.41836656 -6.14926665 21.89595974 -5.3046875 18.37304688 C-4.76627204 16.14307284 -4.22723217 13.91324946 -3.6875 11.68359375 C-3.30621948 10.09785805 -3.30621948 10.09785805 -2.91723633 8.48008728 C-2.68029053 7.51140213 -2.44334473 6.54271698 -2.19921875 5.54467773 C-1.99127686 4.68881577 -1.78333496 3.8329538 -1.5690918 2.95115662 C-1 1 -1 1 0 0 Z "
		fill="#FFFFFF" transform="translate(781,822)" />
	<path
		d="M0 0 C3.375 1.6875 3.375 1.6875 6 4 C6.78375 4.66 7.5675 5.32 8.375 6 C10.98899706 10.82584073 10.59027982 15.63646977 10 21 C8.26384225 26.30492646 5.3547618 28.75709228 1 32 C-2.75202076 33.87601038 -6.91452837 33.52484891 -11 33 C-15.41391517 31.28470968 -18.26259125 29.03698106 -21 25.1875 C-22.77008996 19.54533826 -22.7798632 15.15552243 -20.375 9.8125 C-15.76348769 1.44589909 -9.19092748 -1.01807197 0 0 Z "
		fill="#FFFFFF" transform="translate(396,272)" />
	<path
		d="M0 0 C5.37868223 2.58523759 9.40131009 5.52991816 12 11 C12.82118478 16.49675939 12.72530457 21.43780554 10.375 26.5 C5.96799307 31.13895466 2.89686089 33.23781546 -3.5625 33.4375 C-7.83665051 33.26375404 -10.69230404 32.90676312 -14 30 C-17.84311564 25.82747445 -19.69564702 22.30438684 -20.4375 16.6875 C-19.7193197 10.63426608 -16.77073445 6.60601497 -12.3125 2.5625 C-8.26553314 -0.17193707 -4.82929585 -0.87058735 0 0 Z "
		fill="#FFFFFF" transform="translate(586,272)" />
	<path
		d="M0 0 C0.66 0.33 1.32 0.66 2 1 C-1.96 4.96 -5.92 8.92 -10 13 C-10 8.97698923 -8.67577112 7.95743123 -6 5 C-4.05056443 3.25501743 -2.04941287 1.63021478 0 0 Z "
		fill="#2B2B2B" transform="translate(556,221)" />
	<path
		d="M0 0 C1.36741555 2.25221384 2.04066478 3.52557758 1.8125 6.1875 C1.4103125 7.0846875 1.4103125 7.0846875 1 8 C0.01 8.33 -0.98 8.66 -2 9 C-1.125 1.125 -1.125 1.125 0 0 Z "
		fill="#FFFFFF" transform="translate(323,821)" />
	<path
		d="M0 0 C2.1519437 3.22791555 2.20086443 4.28400809 2 8 C1.01 8.33 0.02 8.66 -1 9 C-1.09765625 2.84765625 -1.09765625 2.84765625 -1 1 C-0.67 0.67 -0.34 0.34 0 0 Z "
		fill="#FFFFFF" transform="translate(781,822)" />
</svg>