<svg preserveAspectRatio="xMidYMid meet" viewBox="0 233.47199999999998 1024 1069.056" xmlns="http://www.w3.org/2000/svg" version="1.0" style="max-height: 500px" width="1024" height="1069.056">

<g stroke="none" fill="#000000" transform="translate(0.000000,1536.000000) scale(0.100000,-0.100000)">
<path d="M3190 9885 c-510 -75 -1001 -441 -1328 -990 -158 -265 -271 -583&#10;-318 -895 -23 -153 -23 -431 0 -605 125 -937 830 -1770 1619 -1912 175 -31&#10;439 -18 576 29 79 27 101 43 101 77 0 35 -8 42 -87 75 -545 228 -982 887&#10;-1091 1645 -21 148 -23 608 -4 721 60 348 126 560 247 800 196 390 473 686&#10;789 842 140 69 146 73 146 104 0 41 -79 79 -215 104 -99 18 -329 21 -435 5z"/>
<path d="M6685 9890 c-148 -21 -269 -62 -282 -95 -15 -40 6 -61 113 -114 147&#10;-71 270 -158 392 -275 716 -689 899 -1899 433 -2861 -117 -242 -255 -430 -439&#10;-598 -128 -117 -221 -182 -369 -256 -127 -63 -152 -86 -133 -121 23 -43 152&#10;-83 325 -101 448 -47 928 161 1315 568 377 397 604 890 661 1432 15 141 7 461&#10;-15 587 -58 341 -184 646 -397 965 -296 443 -722 754 -1164 850 -102 22 -345&#10;33 -440 19z"/>
<path d="M3568 8730 c-320 -67 -597 -317 -717 -646 -79 -218 -81 -544 -5 -773&#10;72 -218 220 -414 408 -540 247 -167 553 -204 838 -101 225 82 442 280 558 510&#10;177 351 144 807 -80 1141 -102 152 -292 304 -460 368 -163 63 -366 78 -542 41z&#10;m352 -435 c192 -51 354 -213 413 -414 27 -90 28 -279 3 -371 -39 -142 -136&#10;-281 -248 -358 -160 -109 -398 -122 -568 -31 -172 92 -288 273 -310 486 -33&#10;319 124 586 400 680 78 27 225 31 310 8z"/>
<path d="M3709 7935 c-54 -17 -114 -73 -140 -129 -24 -52 -25 -155 -3 -221 23&#10;-66 82 -121 151 -141 76 -22 140 -6 201 49 53 50 67 75 81 150 35 188 -121&#10;345 -290 292z"/>
<path d="M6325 8743 c-172 -36 -277 -76 -382 -146 -271 -180 -438 -472 -462&#10;-808 -35 -480 181 -886 575 -1082 296 -149 649 -120 936 74 141 96 300 291&#10;367 452 91 219 115 502 61 726 -96 399 -404 703 -788 777 -68 13 -259 18 -307&#10;7z m269 -448 c214 -56 385 -240 432 -465 49 -229 -39 -501 -204 -637 -330&#10;-269 -805 -111 -917 307 -42 155 -25 343 45 488 71 148 223 277 366 311 63 15&#10;214 12 278 -4z"/>
<path d="M6407 7938 c-54 -15 -132 -89 -154 -146 -72 -189 74 -393 254 -352&#10;103 23 176 110 189 226 21 172 -132 316 -289 272z"/>
</g>
</svg>