<?xml version="1.0" encoding="UTF-8"?>
<svg version="1.1" xmlns="http://www.w3.org/2000/svg" width="310" height="310">
<path d="M0 0 C102.3 0 204.6 0 310 0 C310 102.3 310 204.6 310 310 C207.7 310 105.4 310 0 310 C0 207.7 0 105.4 0 0 Z " fill="#E9E9E9" transform="translate(0,0)"/>
<path d="M0 0 C5.05629373 2.84620405 8.20804246 6.81593364 10.625 12.0625 C10.625 13.0525 10.625 14.0425 10.625 15.0625 C11.28242187 14.74796875 11.93984375 14.4334375 12.6171875 14.109375 C27.58742045 7.37479866 42.31749887 5.28052192 58.625 6.0625 C59.89537109 6.0934375 59.89537109 6.0934375 61.19140625 6.125 C71.19395846 6.7323656 81.53334032 11.02438622 90.625 15.0625 C90.83125 14.216875 91.0375 13.37125 91.25 12.5 C93.75721517 6.23196209 97.98929285 1.47478476 104.2265625 -1.2734375 C111.03853362 -3.15948814 118.2094884 -3.11589443 124.5625 0.125 C130.93007977 4.27268958 135.45969111 9.72450877 137.625 17.0625 C138.6333021 25.85091086 137.42454295 33.59569492 132.31640625 40.9453125 C130.54885572 43.11672472 128.60359151 45.08390849 126.625 47.0625 C127.49511719 48.55136719 127.49511719 48.55136719 128.3828125 50.0703125 C145.49190369 79.67810686 155.21264835 115.15258515 147.66015625 149.296875 C140.40562402 175.68694697 124.38809097 196.84109767 100.7421875 210.8046875 C87.80016963 218.10703076 72.52636141 223.50888905 57.625 224.0625 C56.68914062 224.1140625 55.75328125 224.165625 54.7890625 224.21875 C26.41745396 225.07633011 0.50675836 214.01107561 -20.04394531 194.8449707 C-36.52872542 178.88759755 -47.58650772 156.15875305 -48.375 133.0625 C-48.45234375 131.25458984 -48.45234375 131.25458984 -48.53125 129.41015625 C-49.31868565 102.34124219 -42.69959219 72.40084539 -26.46484375 50.296875 C-25.09524386 48.13096543 -25.09524386 48.13096543 -26.0078125 45.96484375 C-27.33832996 44.11352374 -28.72595815 42.50998587 -30.3125 40.875 C-35.37130961 35.061698 -37.07339565 28.24360774 -36.77734375 20.60546875 C-35.47494876 12.37382664 -30.80898826 6.9424054 -24.65625 1.65625 C-17.30177313 -3.48180918 -8.10819744 -3.55730296 0 0 Z " fill="#E8E8E8" transform="translate(104.375,8.9375)"/>
<path d="M0 0 C5.05629373 2.84620405 8.20804246 6.81593364 10.625 12.0625 C10.625 13.0525 10.625 14.0425 10.625 15.0625 C11.28242187 14.74796875 11.93984375 14.4334375 12.6171875 14.109375 C27.58742045 7.37479866 42.31749887 5.28052192 58.625 6.0625 C59.89537109 6.0934375 59.89537109 6.0934375 61.19140625 6.125 C71.19395846 6.7323656 81.53334032 11.02438622 90.625 15.0625 C90.83125 14.216875 91.0375 13.37125 91.25 12.5 C93.75721517 6.23196209 97.98929285 1.47478476 104.2265625 -1.2734375 C111.03853362 -3.15948814 118.2094884 -3.11589443 124.5625 0.125 C130.93007977 4.27268958 135.45969111 9.72450877 137.625 17.0625 C138.6333021 25.85091086 137.42454295 33.59569492 132.31640625 40.9453125 C130.54885572 43.11672472 128.60359151 45.08390849 126.625 47.0625 C127.49511719 48.55136719 127.49511719 48.55136719 128.3828125 50.0703125 C145.49190369 79.67810686 155.21264835 115.15258515 147.66015625 149.296875 C140.40562402 175.68694697 124.38809097 196.84109767 100.7421875 210.8046875 C87.80016963 218.10703076 72.52636141 223.50888905 57.625 224.0625 C56.68914062 224.1140625 55.75328125 224.165625 54.7890625 224.21875 C26.41745396 225.07633011 0.50675836 214.01107561 -20.04394531 194.8449707 C-36.52872542 178.88759755 -47.58650772 156.15875305 -48.375 133.0625 C-48.45234375 131.25458984 -48.45234375 131.25458984 -48.53125 129.41015625 C-49.31868565 102.34124219 -42.69959219 72.40084539 -26.46484375 50.296875 C-25.09524386 48.13096543 -25.09524386 48.13096543 -26.0078125 45.96484375 C-27.33832996 44.11352374 -28.72595815 42.50998587 -30.3125 40.875 C-35.37130961 35.061698 -37.07339565 28.24360774 -36.77734375 20.60546875 C-35.47494876 12.37382664 -30.80898826 6.9424054 -24.65625 1.65625 C-17.30177313 -3.48180918 -8.10819744 -3.55730296 0 0 Z M-10.265625 43.55078125 C-24.95452307 59.67546991 -35.37784946 83.02029765 -34.6328125 104.94921875 C-34.28357614 109.16651234 -33.65987666 113.03064565 -32.375 117.0625 C-32.13007812 117.84882812 -31.88515625 118.63515625 -31.6328125 119.4453125 C-25.18611553 137.6443951 -9.65269168 149.13819814 7.11083984 157.26806641 C27.76591767 166.88913621 49.14972312 173.92227519 71.625 166.0625 C72.76557861 165.66732178 72.76557861 165.66732178 73.92919922 165.26416016 C95.80851684 157.58538119 118.56699549 147.78588479 129.9375 126.1875 C138.10781539 108.51112284 136.87362602 92.94917239 130.52734375 74.94921875 C121.21414245 51.11373745 105.12422228 32.29976619 81.54394531 21.87158203 C48.35740801 7.87919213 13.91451809 18.14120011 -10.265625 43.55078125 Z " fill="#090909" transform="translate(104.375,8.9375)"/>
<path d="M0 0 C29.92592593 0 29.92592593 0 37.4375 7.375 C42.65462043 13.64743539 42.39461813 20.99314579 42.4375 28.75 C42.47037109 29.78382813 42.50324219 30.81765625 42.53710938 31.8828125 C42.59238488 39.86258532 40.91353626 46.52246967 35.55664062 52.65136719 C25.7154163 61.53419777 12.49985689 58 0 58 C0 38.86 0 19.72 0 0 Z " fill="#0A0A0A" transform="translate(182,245)"/>
<path d="M0 0 C4.95 0 9.9 0 15 0 C20.04866916 9.86668846 24.73651348 19.76763236 29 30 C29.33 20.1 29.66 10.2 30 0 C34.29 0 38.58 0 43 0 C43 19.14 43 38.28 43 58 C38.05 58 33.1 58 28 58 C22.95133084 48.13331154 18.26348652 38.23236764 14 28 C13.67 37.9 13.34 47.8 13 58 C8.71 58 4.42 58 0 58 C0 38.86 0 19.72 0 0 Z " fill="#0A0A0A" transform="translate(131,245)"/>
<path d="M0 0 C4.86979684 2.38895694 7.31913003 5.33330042 10 10 C11.88423077 15.6526923 12.13509211 22.39070136 9.5625 27.875 C7.11356576 32.13439634 4.20524114 36.12813443 1.35864258 40.12988281 C-0.93037336 43.36332452 -2.94023892 46.60314749 -4.75 50.125 C-6.69870833 53.68891288 -7.97743196 55.68829303 -12 57 C-17.27404291 57.62997756 -21.53861709 57.70362881 -26.375 55.375 C-31.11171331 51.08940224 -34.66682373 47.4414156 -35.30859375 40.8125 C-35.73136965 28.30858237 -31.89624581 20.87783422 -23.6875 11.6875 C-17.05203156 4.63415543 -10.36308207 -2.26814626 0 0 Z " fill="#0A0A0A" transform="translate(129,68)"/>
<path d="M0 0 C3.1875 1.375 3.1875 1.375 6 4 C6.75667969 4.66 7.51335937 5.32 8.29296875 6 C15.86556462 12.96541345 22.94006651 21.3286539 24.59765625 31.76171875 C24.75241279 38.09328 24.46829425 43.62973794 21 49 C15.94819024 54.23484634 11.59702282 57.13130668 4.1953125 57.4609375 C-0.55415476 56.4637184 -3.43428484 53.83958474 -6.08984375 49.8984375 C-6.69957031 48.73570313 -7.30929688 47.57296875 -7.9375 46.375 C-8.61177981 45.12148079 -9.29021342 43.87018761 -9.97265625 42.62109375 C-10.47563232 41.70046143 -10.47563232 41.70046143 -10.98876953 40.76123047 C-12.92365007 37.39130574 -15.23572121 34.29532294 -17.5546875 31.18359375 C-21.9273004 24.57740291 -21.72635188 17.69755834 -21 10 C-17.6248311 -0.52565558 -9.74262278 -1.03905011 0 0 Z " fill="#090909" transform="translate(192,69)"/>
<path d="M0 0 C1.58206057 0.00667536 3.16410534 0.0186375 4.74609375 0.03515625 C5.55240234 0.03966797 6.35871094 0.04417969 7.18945312 0.04882812 C9.18753131 0.06065107 11.18557158 0.07858711 13.18359375 0.09765625 C14.73326232 3.74378702 15.82811297 7.33716028 16.76953125 11.18359375 C17.2032605 12.94098877 17.2032605 12.94098877 17.64575195 14.73388672 C18.09760864 16.58457764 18.09760864 16.58457764 18.55859375 18.47265625 C19.18408169 21.00410755 19.81037703 23.5353595 20.4375 26.06640625 C20.88826904 27.88785156 20.88826904 27.88785156 21.34814453 29.74609375 C22.36618962 33.83017409 23.41232298 37.90555621 24.49609375 41.97265625 C24.78097656 43.04257812 25.06585938 44.1125 25.359375 45.21484375 C25.93825883 47.23956539 26.58832278 49.24462685 27.2890625 51.23046875 C28.18359375 54.09765625 28.18359375 54.09765625 28.18359375 58.09765625 C23.56359375 58.09765625 18.94359375 58.09765625 14.18359375 58.09765625 C13.19359375 53.14765625 13.19359375 53.14765625 12.18359375 48.09765625 C7.23359375 48.42765625 2.28359375 48.75765625 -2.81640625 49.09765625 C-3.80640625 52.39765625 -4.79640625 55.69765625 -5.81640625 59.09765625 C-10.10640625 59.09765625 -14.39640625 59.09765625 -18.81640625 59.09765625 C-19.86504101 53.85448247 -19.19014679 50.83041954 -17.69140625 45.91015625 C-17.21970768 44.29306917 -16.74836336 42.67587872 -16.27734375 41.05859375 C-16.03338867 40.23456055 -15.78943359 39.41052734 -15.53808594 38.56152344 C-14.63303902 35.47162714 -13.77792719 32.36938228 -12.92724609 29.26416016 C-11.02937078 22.3386599 -9.07055281 15.43061822 -7.06640625 8.53515625 C-6.85564453 7.80224365 -6.64488281 7.06933105 -6.42773438 6.31420898 C-4.61210953 0.11801713 -4.61210953 0.11801713 0 0 Z " fill="#0B0B0B" transform="translate(98.81640625,244.90234375)"/>
<path d="M0 0 C27 0 27 0 35 4 C40.60627877 9.84484382 41.35728545 14.00090186 41.28125 21.8515625 C40.74964591 27.80257496 38.77101367 32.27326167 34.5 36.4375 C27.98864032 40.5070998 22.70141035 40.53791538 15 41 C14.67 46.61 14.34 52.22 14 58 C9.38 58 4.76 58 0 58 C0 38.86 0 19.72 0 0 Z " fill="#090909" transform="translate(40,245)"/>
<path d="M0 0 C5.28 0 10.56 0 16 0 C19.04427646 7.16454719 21.21787292 14.18126567 23 21.75 C24.63116403 28.50937832 26.30089931 35.21843043 28.3125 41.875 C29.91132981 47.28846526 30.65873313 52.36909666 31 58 C26.71 58 22.42 58 18 58 C16 52 16 52 16 48 C11.05 48.33 6.1 48.66 1 49 C0.690625 50.464375 0.38125 51.92875 0.0625 53.4375 C-0.875 57.875 -0.875 57.875 -2 59 C-4.18639453 59.07258946 -6.37500389 59.08373783 -8.5625 59.0625 C-10.35880859 59.04896484 -10.35880859 59.04896484 -12.19140625 59.03515625 C-13.11824219 59.02355469 -14.04507813 59.01195312 -15 59 C-14.55170685 51.51888391 -13.35218174 44.6841487 -11.25 37.5 C-10.70601336 35.5823197 -10.16306452 33.66434474 -9.62109375 31.74609375 C-9.34894043 30.7907373 -9.07678711 29.83538086 -8.79638672 28.85107422 C-8.03001651 26.10745948 -7.30416115 23.35723498 -6.59765625 20.59765625 C-6.38012695 19.74816406 -6.16259766 18.89867187 -5.93847656 18.0234375 C-5.53431839 16.43454733 -5.1336717 14.84475791 -4.73730469 13.25390625 C-4.55200195 12.53203125 -4.36669922 11.81015625 -4.17578125 11.06640625 C-4.02020752 10.44709229 -3.86463379 9.82777832 -3.7043457 9.18969727 C-2.69300804 6.04561149 -1.30101229 3.03569535 0 0 Z " fill="#0A0A0A" transform="translate(241,245)"/>
<path d="M0 0 C1.134375 -0.00515625 2.26875 -0.0103125 3.4375 -0.015625 C4.613125 -0.00015625 5.78875 0.0153125 7 0.03125 C8.7634375 0.00804688 8.7634375 0.00804688 10.5625 -0.015625 C11.696875 -0.01046875 12.83125 -0.0053125 14 0 C15.546875 0.00676758 15.546875 0.00676758 17.125 0.01367188 C20.73930869 0.66434565 22.43888081 1.93514284 25 4.53125 C25.3125 7.84375 25.3125 7.84375 24 11.53125 C20.11587632 16.07494185 15.90589066 19.2024246 10 20.53125 C11.92391649 25.84536494 11.92391649 25.84536494 16 29.53125 C21.15592194 30.19906465 26.29730038 29.82524981 31 27.53125 C32.42055068 25.52988756 32.42055068 25.52988756 33 23.53125 C34.65 23.53125 36.3 23.53125 38 23.53125 C38.3125 25.71875 38.3125 25.71875 38 28.53125 C32.07441423 35.64195292 24.90206649 38.11545293 16 39.53125 C2.36707056 40.6008807 -11.01058707 39.8901705 -22.0625 31.09375 C-24 28.53125 -24 28.53125 -23.8125 25.71875 C-23.544375 24.996875 -23.27625 24.275 -23 23.53125 C-19.30097719 23.85763437 -18.06571278 24.46859363 -15.3125 27.09375 C-11.90248959 30.13272301 -8.78944334 30.19415657 -4.34375 29.953125 C-0.92962869 29.33858316 0.7843458 28.1757405 3 25.53125 C3.87943404 22.89664052 3.87943404 22.89664052 4 20.53125 C3.27296875 20.26699219 2.5459375 20.00273437 1.796875 19.73046875 C-2.75670578 17.77802559 -6.51991035 15.05395299 -10 11.53125 C-11.375 7.84375 -11.375 7.84375 -11 4.53125 C-7.44680137 0.93605902 -5.00134785 0.0218809 0 0 Z " fill="#0C0C0C" transform="translate(148,119.46875)"/>
<path d="M0 0 C9 0 9 0 12.02734375 2.375 C14.90862917 6.59477685 14.69700939 11.05587122 14.5625 16 C14.57345703 16.8765625 14.58441406 17.753125 14.59570312 18.65625 C14.53139718 24.34946994 13.80455302 27.69139549 10 32 C7 33 7 33 0 33 C0 22.11 0 11.22 0 0 Z " fill="#E9E9E9" transform="translate(196,258)"/>
<path d="M0 0 C8 0 8 0 11 1.5625 C13 4 13 4 13.4375 7.5 C13.05046308 10.59629537 12.75440378 12.46586121 11 15 C7.57067929 16.71466036 3.78283935 16.05404056 0 16 C0 10.72 0 5.44 0 0 Z " fill="#E3E3E3" transform="translate(54,257)"/>
<path d="M0 0 C0.66 0 1.32 0 2 0 C2.67286212 2.41509441 3.33846012 4.83180356 4 7.25 C4.19078125 7.93191406 4.3815625 8.61382812 4.578125 9.31640625 C5.49957044 12.70600912 6 15.45778976 6 19 C2.7 19 -0.6 19 -4 19 C-2.02 9.595 -2.02 9.595 0 0 Z " fill="#CECECE" transform="translate(248,263)"/>
<path d="M0 0 C2.06578763 3.09868145 2.74691358 5.34976306 3.625 8.9375 C3.88539062 9.97777344 4.14578125 11.01804687 4.4140625 12.08984375 C5 15 5 15 5 19 C1.7 19 -1.6 19 -5 19 C-4.35861776 16.01980994 -3.7121269 13.04089324 -3.0625 10.0625 C-2.88009766 9.21236328 -2.69769531 8.36222656 -2.50976562 7.48632812 C-2.33251953 6.67744141 -2.15527344 5.86855469 -1.97265625 5.03515625 C-1.72914429 3.91185913 -1.72914429 3.91185913 -1.48071289 2.76586914 C-1 1 -1 1 0 0 Z " fill="#D5D5D5" transform="translate(103,263)"/>
<path d="M0 0 C2.5625 0.3125 2.5625 0.3125 4.375 1.5 C5.96449375 3.9260694 5.92737512 5.46647406 5.5625 8.3125 C3.5625 10.3125 3.5625 10.3125 0.5625 10.5625 C-2.4375 10.3125 -2.4375 10.3125 -4.4375 8.3125 C-4.6875 5.3125 -4.6875 5.3125 -4.4375 2.3125 C-2.4375 0.3125 -2.4375 0.3125 0 0 Z " fill="#E1E1E1" transform="translate(185.4375,86.6875)"/>
<path d="M0 0 C3.625 0.375 3.625 0.375 7 1 C7.125 4.375 7.125 4.375 7 8 C5 10 5 10 2 10.3125 C1.01 10.209375 0.02 10.10625 -1 10 C-3 7 -3 7 -2.75 4.4375 C-2 2 -2 2 0 0 Z " fill="#E3E3E3" transform="translate(122,87)"/>
<path d="M0 0 C5.28 0 10.56 0 16 0 C16 0.33 16 0.66 16 1 C15.02417969 1.06058594 14.04835937 1.12117187 13.04296875 1.18359375 C11.13451172 1.30927734 11.13451172 1.30927734 9.1875 1.4375 C7.92292969 1.51871094 6.65835938 1.59992188 5.35546875 1.68359375 C2.00818107 1.87184547 2.00818107 1.87184547 -1 3 C-0.67 2.01 -0.34 1.02 0 0 Z " fill="#111111" transform="translate(241,245)"/>
<path d="M0 0 C2 3 2 3 1.8125 5.125 C1.544375 5.74375 1.27625 6.3625 1 7 C0.01 7.33 -0.98 7.66 -2 8 C-1.125 1.125 -1.125 1.125 0 0 Z " fill="#C6C6C6" transform="translate(103,263)"/>
</svg>
